<svg version="1.1" viewBox="0 0 256 256" xmlns="http://www.w3.org/2000/svg">
  <path d="m33.458 243.82c-3.4988-3.1257-3.4988-3.1257-3.7904-68.896-0.29157-65.77-0.29157-65.77-3.9528-67.094-25.895-9.3637-27.306-49.846-2.1943-62.967 5.8979-3.0818 5.8979-3.0818 5.9005-14.439 0.0039-17.112 3.5306-22.705 13.177-20.895 6.9906 1.3114 8.2529 4.2925 8.2529 19.49 0 13.197 0 13.197 4.5532 15.241 25.87 11.613 25.251 54.133-0.9258 63.599-3.6274 1.3117-3.6274 1.3117-3.6274 67.09 0 65.779 0 65.779-3.3274 68.887-4.4915 4.1957-9.356 4.1896-14.065-0.0176zm11.994-155.95c5.1768-2.677 7.5409-6.6358 7.5409-12.628 0-15.053-21.457-17.555-25.814-3.0103-3.1896 10.646 8.531 20.676 18.274 15.638zm75.465 155.43c-3.6426-3.6426-3.6426-3.6426-3.6452-19.016-2e-3 -15.374-2e-3 -15.374-5.9553-18.484-24.61-12.859-23.667-50.815 1.5436-62.184 4.4143-1.9906 4.4143-1.9906 4.4143-64.609 0-72.06 0.95503-76.113 16.092-68.286 5.4026 2.7938 5.3353 1.9323 5.3353 68.322 0 62.582 0 62.582 4.5532 64.596 26.077 11.538 25.504 54.981-0.84058 63.675-3.7127 1.2253-3.7127 1.2253-3.7127 17.295 0 21.916-7.0988 29.376-17.784 18.69zm12.138-55.861c11.332-4.6316 11.244-18.807-0.1521-24.468-8.334-4.1393-17.771 2.3015-17.771 12.129 0 10.165 8.6585 16.126 17.923 12.339zm77.545 58.009c-5.4382-3.0141-5.3961-2.5237-5.4367-63.374-0.0379-56.834-0.0379-56.834-3.6654-58.146-26.375-9.5372-26.465-52.998-0.13363-64 3.7611-1.5715 3.7611-1.5715 3.7611-21.966 0-25.896 2.1605-30.501 13.328-28.406 7.4832 1.4039 8.0994 3.4987 8.0994 27.532 0 21.268 0 21.268 3.935 22.912 26.372 11.019 26.839 52.695 0.7111 63.437-4.638 1.9069-4.638 1.9069-4.642 59.027-2e-3 37.12-0.39026 57.842-1.1071 59.181-2.4429 4.5645-9.9882 6.4966-14.849 3.8023zm13.733-143.08c9.6763-6.8902 4.3228-23.625-7.5578-23.625-8.5132 0-13.792 5.0799-13.792 13.272 0 11.178 12.012 17.002 21.35 10.353z" stroke-width="1.0714"/>
</svg>
